<svg xmlns="http://www.w3.org/2000/svg" viewBox="0 0 980 520" role="img" aria-label="AegisNet codebase visualization"><rect width="980" height="520" rx="28" fill="#0f172a"/><defs><filter id="glow"><feGaussianBlur stdDeviation="5" result="b"/><feMerge><feMergeNode in="b"/><feMergeNode in="SourceGraphic"/></feMerge></filter></defs><text x="48" y="62" fill="#e2e8f0" font-size="32" font-family="Inter,Arial" font-weight="700">AegisNet codebase map</text><text x="48" y="96" fill="#94a3b8" font-size="16" font-family="Inter,Arial">Generated from GitHub repository JSON/tree metadata for the project wiki.</text><rect x="48" y="138" width="250" height="100" rx="18" fill="#1e293b" stroke="#60a5fa"/><text x="74" y="178" fill="#bfdbfe" font-size="20" font-family="Inter,Arial" font-weight="700">Repository</text><text x="74" y="208" fill="#e2e8f0" font-size="18" font-family="Inter,Arial">cywf/AegisNet</text><rect x="365" y="138" width="250" height="100" rx="18" fill="#172554" stroke="#38bdf8"/><text x="391" y="178" fill="#bae6fd" font-size="20" font-family="Inter,Arial" font-weight="700">Primary stack</text><text x="391" y="208" fill="#e0f2fe" font-size="18" font-family="Inter,Arial">TypeScript</text><rect x="682" y="138" width="250" height="100" rx="18" fill="#1e1b4b" stroke="#a78bfa"/><text x="708" y="178" fill="#ddd6fe" font-size="20" font-family="Inter,Arial" font-weight="700">Files indexed</text><text x="708" y="208" fill="#ede9fe" font-size="18" font-family="Inter,Arial">98 public files</text><path d="M298 188 C330 188 333 188 365 188" stroke="#60a5fa" stroke-width="3" fill="none"/><path d="M615 188 C647 188 650 188 682 188" stroke="#a78bfa" stroke-width="3" fill="none"/><text x="48" y="294" fill="#e2e8f0" font-size="22" font-family="Inter,Arial" font-weight="700">Top repository areas</text><rect x="54" y="320" width="145" height="82" rx="16" fill="#111827" stroke="#60a5fa"/><text x="70" y="354" fill="#60a5fa" font-size="17" font-family="Inter,Arial" font-weight="700">site</text><text x="70" y="380" fill="#cbd5e1" font-size="15" font-family="Inter,Arial">37 files</text><rect x="217" y="320" width="145" height="82" rx="16" fill="#111827" stroke="#34d399"/><text x="233" y="354" fill="#34d399" font-size="17" font-family="Inter,Arial" font-weight="700">infra</text><text x="233" y="380" fill="#cbd5e1" font-size="15" font-family="Inter,Arial">24 files</text><rect x="380" y="320" width="145" height="82" rx="16" fill="#111827" stroke="#f59e0b"/><text x="396" y="354" fill="#f59e0b" font-size="17" font-family="Inter,Arial" font-weight="700">(root)</text><text x="396" y="380" fill="#cbd5e1" font-size="15" font-family="Inter,Arial">14 files</text><rect x="543" y="320" width="145" height="82" rx="16" fill="#111827" stroke="#f472b6"/><text x="559" y="354" fill="#f472b6" font-size="17" font-family="Inter,Arial" font-weight="700">.github</text><text x="559" y="380" fill="#cbd5e1" font-size="15" font-family="Inter,Arial">9 files</text><rect x="706" y="320" width="145" height="82" rx="16" fill="#111827" stroke="#a78bfa"/><text x="722" y="354" fill="#a78bfa" font-size="17" font-family="Inter,Arial" font-weight="700">mermaid</text><text x="722" y="380" fill="#cbd5e1" font-size="15" font-family="Inter,Arial">5 files</text><text x="48" y="456" fill="#e2e8f0" font-size="18" font-family="Inter,Arial" font-weight="700">Dominant file types</text><text x="48" y="486" fill="#60a5fa" font-size="16" font-family="Inter,Arial">.tf: 15</text><text x="193" y="486" fill="#34d399" font-size="16" font-family="Inter,Arial">.md: 13</text><text x="338" y="486" fill="#f59e0b" font-size="16" font-family="Inter,Arial">.mmd: 10</text><text x="483" y="486" fill="#f472b6" font-size="16" font-family="Inter,Arial">.json: 9</text><text x="628" y="486" fill="#a78bfa" font-size="16" font-family="Inter,Arial">.astro: 9</text></svg>